{"title":"WWE.Raw.All.Star.Night.13.06.11.Xvid-spk1998","uid":6468389,"size":906813188,"categoryP":"video","categoryS":"tv_shows","magnet":"?xt=urn:btih:b95685840b439765c820c7fb1ad92296f76ae470&amp;dn=WWE.Raw.All.Star.Night.13.06.11.Xvid-spk1998&amp;tr=udp%3A%2F%2Ftracker.openbittorrent.com%3A80&amp;tr=udp%3A%2F%2Fopen.demonii.com%3A1337&amp;tr=udp%3A%2F%2Ftracker.coppersurfer.tk%3A6969&amp;tr=udp%3A%2F%2Fexodus.desync.com%3A6969","seeders":0,"leechers":0,"uploader":"spyke1998","files":1,"time":1308043593,"description":"   Video #0\n      ID : 0\n      Format : MPEG-4 Visual\n      Format profile : AdvancedSimple@L5\n      Format settings, BVOP : Yes\n      Format settings, QPel : No\n      Format settings, GMC : No warppoints\n      Format settings, Matrix : Default (H.263)\n      Codec ID : XVID\n      Codec ID/Hint : XviD\n      Duration : 2h 12mn\n      Bit rate : 768 Kbps\n      Width : 640 pixels\n      Height : 360 pixels\n      Display aspect ratio : 16:9\n      Frame rate : 25.000 fps\n      Resolution : 24 bits\n      Colorimetry : 4:2:0\n      Scan type : Progressive\n      Bits/(Pixel*Frame) : 0.133\n      Stream size : 727 MiB (84%)\n      Writing library : XviD 1.2.1 (UTC 2008-12-04)\n   Audio #1\n      ID : 1\n      Format : MPEG Audio\n      Format version : Version 1\n      Format profile : Layer 3\n      Codec ID : 55\n      Codec ID/Hint : MP3\n      Duration : 2h 12mn\n      Bit rate mode : Constant\n      Bit rate : 128 Kbps\n      Channel(s) : 2 channels\n      Sampling rate : 48.0 KHz\n      Resolution : 16 bits\n      Video delay : 16ms\n      Stream size : 121 MiB (14%)\n      Alignment : Aligned on interleaves\n      Interleave, duration : 24 ms (0.60 video frame)","torrent":{"xt":"urn:btih:b95685840b439765c820c7fb1ad92296f76ae470","amp;dn":"WWE.Raw.All.Star.Night.13.06.11.Xvid-spk1998","amp;tr":["udp%3A%2F%2Ftracker.openbittorrent.com%3A80","udp%3A%2F%2Fopen.demonii.com%3A1337","udp%3A%2F%2Ftracker.coppersurfer.tk%3A6969","udp%3A%2F%2Fexodus.desync.com%3A6969"],"infoHash":"b95685840b439765c820c7fb1ad92296f76ae470","infoHashBuffer":{"type":"Buffer","data":[185,86,133,132,11,67,151,101,200,32,199,251,26,217,34,150,247,106,228,112]},"announce":[],"urlList":[]}}